<svg width="20" height="20" viewBox="0 0 20 20" fill="none" xmlns="http://www.w3.org/2000/svg">
<rect width="20" height="20" rx="5" fill="#C5392C"/>
<path d="M10 4C8.67441 4.00165 7.40358 4.54025 6.46625 5.49767C5.52892 6.45508 5.00162 7.75315 5.00001 9.10714C4.99844 10.2137 5.35234 11.2901 6.00741 12.1714C6.00741 12.1714 6.14378 12.3546 6.16569 12.3811L10 17L13.8359 12.3791C13.8561 12.3544 13.9926 12.1712 13.9926 12.1712L13.9933 12.1701C14.648 11.2892 15.0016 10.2132 15 9.10714C14.9984 7.75315 14.4711 6.45508 13.5337 5.49767C12.5964 4.54025 11.3256 4.00165 10 4ZM10 10.9643C9.6404 10.9643 9.28887 10.8554 8.98987 10.6513C8.69088 10.4472 8.45783 10.1572 8.32022 9.81784C8.18261 9.47849 8.1466 9.10508 8.21676 8.74483C8.28691 8.38458 8.46008 8.05367 8.71435 7.79394C8.96863 7.53422 9.2926 7.35734 9.64529 7.28568C9.99798 7.21403 10.3636 7.2508 10.6958 7.39137C11.028 7.53193 11.312 7.76996 11.5118 8.07537C11.7115 8.38078 11.8182 8.73983 11.8182 9.10714C11.8176 9.59952 11.6259 10.0716 11.285 10.4197C10.9442 10.7679 10.482 10.9637 10 10.9643Z" fill="white"/>
</svg>
