<svg width="10" height="13" viewBox="0 0 10 13" fill="none" xmlns="http://www.w3.org/2000/svg">
<path d="M5 0C3.67441 0.0016464 2.40358 0.540247 1.46625 1.49767C0.528919 2.45508 0.00161703 3.75315 5.16985e-06 5.10714C-0.00156008 6.21366 0.352341 7.29014 1.00741 8.17143C1.00741 8.17143 1.14378 8.35459 1.16569 8.38115L5 13L8.83591 8.37915C8.85609 8.3544 8.99259 8.17124 8.99259 8.17124L8.99327 8.17013C9.64795 7.28917 10.0016 6.21316 10 5.10714C9.99838 3.75315 9.47108 2.45508 8.53375 1.49767C7.59642 0.540247 6.32559 0.0016464 5 0ZM5 6.96429C4.6404 6.96429 4.28887 6.85537 3.98987 6.6513C3.69088 6.44724 3.45783 6.15719 3.32022 5.81784C3.18261 5.47849 3.1466 5.10508 3.21676 4.74483C3.28691 4.38458 3.46008 4.05367 3.71435 3.79394C3.96863 3.53422 4.2926 3.35734 4.64529 3.28568C4.99798 3.21403 5.36356 3.2508 5.69579 3.39137C6.02802 3.53193 6.31198 3.76996 6.51176 4.07537C6.71155 4.38078 6.81818 4.73983 6.81818 5.10714C6.81764 5.59952 6.62591 6.07157 6.28505 6.41973C5.94419 6.76789 5.48205 6.96373 5 6.96429Z" fill="#D29B64"/>
</svg>
