<svg width="34" height="76" viewBox="0 0 34 76" fill="none" xmlns="http://www.w3.org/2000/svg">
<path d="M0.298707 75.0485C0.0459471 75.1598 -0.0688028 75.4548 0.0424051 75.7076C0.153613 75.9603 0.448667 76.0751 0.701426 75.9639L0.500067 75.5062L0.298707 75.0485ZM25.0897 0.0218227C24.8256 -0.0585803 24.5462 0.0903987 24.4658 0.354577L23.1556 4.6596C23.0752 4.92378 23.2241 5.20312 23.4883 5.28352C23.7525 5.36393 24.0318 5.21495 24.1122 4.95077L25.2769 1.12408L29.1036 2.28874C29.3678 2.36914 29.6471 2.22016 29.7275 1.95598C29.8079 1.69181 29.6589 1.41247 29.3948 1.33207L25.0897 0.0218227ZM0.500067 75.5062L0.701426 75.9639C20.4333 67.2823 29.8596 54.3935 32.7021 40.6105C35.5385 26.8574 31.8029 12.2979 25.3853 0.264867L24.9442 0.500159L24.503 0.735452C30.8504 12.637 34.4974 26.955 31.7228 40.4085C28.9543 53.8321 19.7761 66.479 0.298707 75.0485L0.500067 75.5062Z" fill="#C5392C"/>
</svg>
